<svg width="24" height="24" viewBox="0 0 24 24" fill="none" xmlns="http://www.w3.org/2000/svg">
<path d="M22.3249 1.85223C22.3249 1.75422 22.2458 1.67514 22.1478 1.67509H1.85223C1.75422 1.67514 1.67514 1.75422 1.67509 1.85223V22.1478C1.67514 22.2458 1.75422 22.3249 1.85223 22.3249H22.1478C22.2458 22.3249 22.3249 22.2458 22.3249 22.1478V1.85223ZM17.0035 8.35004C17.3379 8.03099 17.8679 8.04292 18.1871 8.37729C18.5064 8.71174 18.4934 9.24169 18.159 9.56094L10.7173 16.6646C10.3939 16.9733 9.88532 16.9732 9.56185 16.6646L5.84103 13.1128C5.5066 12.7936 5.49368 12.2636 5.81287 11.9291C6.13208 11.5947 6.66206 11.5828 6.99652 11.9019L10.1396 14.9014L17.0035 8.35004ZM24 22.1478C24 23.1705 23.1705 24 22.1478 24H1.85223C0.829493 24 4.40966e-05 23.1705 0 22.1478V1.85223C4.46359e-05 0.829494 0.829494 4.46358e-05 1.85223 0H22.1478C23.1705 4.40967e-05 24 0.829493 24 1.85223V22.1478Z" fill="#334155"/>
</svg>
