<svg width="15" height="24" viewBox="0 0 15 24" fill="none" xmlns="http://www.w3.org/2000/svg">
<path d="M12.4033 4.80273C12.4033 4.09566 12.4028 3.61505 12.3724 3.24391C12.3429 2.88264 12.2892 2.69901 12.2244 2.57169C12.0673 2.26337 11.815 2.01207 11.5049 1.85405C11.3772 1.78899 11.1933 1.73553 10.8318 1.70598C10.4605 1.67565 9.98006 1.67509 9.27207 1.67509H4.80636C4.09833 1.67509 3.6174 1.67565 3.24572 1.70598C2.88366 1.73555 2.69926 1.78905 2.57169 1.85405C2.26257 2.01159 2.01159 2.26257 1.85405 2.57169C1.78905 2.69926 1.73555 2.88366 1.70598 3.24572C1.67565 3.6174 1.67509 4.09833 1.67509 4.80636V19.1936C1.67509 19.9018 1.67565 20.3828 1.70598 20.7543C1.73554 21.116 1.78901 21.3007 1.85405 21.4283C2.01186 21.7378 2.26309 21.9896 2.57169 22.1469C2.699 22.2117 2.88279 22.2645 3.24391 22.294C3.61505 22.3243 4.09566 22.3249 4.80272 22.3249H9.27479C9.98162 22.3249 10.4619 22.3243 10.8327 22.294C11.1935 22.2645 11.3775 22.2117 11.5049 22.1469C11.8145 21.9891 12.067 21.737 12.2244 21.4283C12.2893 21.3009 12.3429 21.117 12.3724 20.7561C12.4028 20.3853 12.4033 19.9052 12.4033 19.1982V4.80273ZM7.04103 18.6041C7.26645 18.6041 7.48305 18.6954 7.64057 18.8566C7.798 19.0179 7.88384 19.2363 7.87858 19.4616V19.4634C7.87339 19.6855 7.7795 19.897 7.61877 20.0503C7.45808 20.2033 7.24293 20.2863 7.02104 20.281H7.01923C6.5649 20.2701 6.20183 19.8988 6.20166 19.4444V19.4416C6.20166 18.9793 6.57685 18.6041 7.03921 18.6041H7.04103ZM14.0775 19.1982C14.0775 19.8775 14.0784 20.4375 14.0412 20.8924C14.0032 21.3571 13.9211 21.7851 13.716 22.1877C13.3977 22.8124 12.8891 23.3206 12.2653 23.6385C11.8627 23.8436 11.4345 23.9247 10.9699 23.9628C10.5149 24 9.95423 24 9.27479 24H4.80272C4.12327 24 3.5628 24 3.10765 23.9628C2.64283 23.9248 2.21406 23.8436 1.81135 23.6385C1.18667 23.3201 0.679363 22.8115 0.361544 22.1877C0.156431 21.785 0.0752773 21.3565 0.0372445 20.8914C1.6138e-05 20.4359 3.72893e-10 19.8744 3.72893e-10 19.1936V4.80636C-1.91699e-07 4.12588 5.85616e-05 3.56507 0.0372445 3.10946C0.075263 2.64399 0.156181 2.2144 0.361544 1.81135C0.679623 1.1871 1.1871 0.679623 1.81135 0.361544C2.2144 0.156181 2.64399 0.075263 3.10946 0.0372445C3.56507 5.85876e-05 4.12588 -1.9073e-07 4.80636 1.06229e-09H9.27207C9.95266 -2.67958e-07 10.5136 2.12602e-05 10.969 0.0372445C11.434 0.0752923 11.8625 0.156366 12.2653 0.361544C12.8885 0.679122 13.3974 1.18629 13.716 1.81135C13.9212 2.21408 14.0032 2.64281 14.0412 3.10765C14.0784 3.5628 14.0775 4.12327 14.0775 4.80273V19.1982Z" fill="#334155"/>
</svg>
