<svg width="21" height="24" viewBox="0 0 21 24" fill="none" xmlns="http://www.w3.org/2000/svg">
<path d="M18.8571 23.1429C18.8571 23.6162 18.4734 24 18 24C17.5266 24 17.1429 23.6162 17.1429 23.1429V21.4286C17.1415 20.2923 16.6895 19.203 15.8861 18.3996C15.0827 17.5962 13.9934 17.1442 12.8571 17.1429H7.71429C6.57806 17.1442 5.48876 17.5962 4.68533 18.3996C3.8819 19.203 3.42993 20.2923 3.42857 21.4286V23.1429C3.42857 23.6162 3.04482 24 2.57143 24C2.09804 24 1.71429 23.6162 1.71429 23.1429V21.4286C1.71655 19.838 2.34942 18.3132 3.47415 17.1884C4.59888 16.0637 6.12368 15.4308 7.71429 15.4286H12.8571C14.4477 15.4308 15.9726 16.0637 17.0973 17.1884C18.222 18.3132 18.8549 19.838 18.8571 21.4286V23.1429ZM0.857143 3.42857C0.629814 3.42857 0.411797 3.51888 0.251051 3.67962C0.090306 3.84037 0 4.05839 0 4.28571V11.1429C0 11.6162 0.383756 12 0.857143 12C1.33053 12 1.71429 11.6162 1.71429 11.1429V4.28571C1.71429 4.05839 1.62398 3.84037 1.46323 3.67962C1.30249 3.51888 1.08447 3.42857 0.857143 3.42857Z" fill="#334155"/>
<path d="M0.857144 0C0.383758 0 0 0.383756 0 0.857143C0 1.33053 0.383756 1.71429 0.857143 1.71429H3.28571C3.838 1.71429 4.28571 2.162 4.28571 2.71429V7.71429C4.28571 9.30558 4.91786 10.8317 6.04307 11.9569C7.16829 13.0821 8.69442 13.7143 10.2857 13.7143C11.877 13.7143 13.4031 13.0821 14.5284 11.9569C15.6536 10.8317 16.2857 9.30558 16.2857 7.71429V2.71429C16.2857 2.162 16.7334 1.71429 17.2857 1.71429H19.7143C20.1877 1.71429 20.5714 1.33053 20.5714 0.857143C20.5714 0.383756 20.1877 0 19.7143 0H0.857144ZM6 2.71429C6 2.162 6.44772 1.71429 7 1.71429H13.5714C14.1237 1.71429 14.5714 2.162 14.5714 2.71429V3.28571C14.5714 3.838 14.1237 4.28571 13.5714 4.28571H7C6.44771 4.28571 6 3.838 6 3.28571V2.71429ZM10.2857 12C9.14907 12 8.05898 11.5485 7.25526 10.7447C6.45153 9.94102 6 8.85093 6 7.71429V7C6 6.44771 6.44772 6 7 6H13.5714C14.1237 6 14.5714 6.44772 14.5714 7V7.71429C14.5714 8.85093 14.1199 9.94102 13.3162 10.7447C12.5124 11.5485 11.4224 12 10.2857 12Z" fill="#334155"/>
</svg>
