<svg width="21" height="24" viewBox="0 0 21 24" fill="none" xmlns="http://www.w3.org/2000/svg">
<path d="M18.8902 19.7278C18.8902 18.2933 17.7276 17.1307 16.2931 17.1307C14.8587 17.1307 13.696 18.2933 13.696 19.7278C13.696 21.1622 14.8587 22.3248 16.2931 22.3249C17.7276 22.3249 18.8902 21.1623 18.8902 19.7278ZM6.86934 12C6.86934 10.5655 5.7067 9.40292 4.27222 9.40288C2.8377 9.40288 1.67509 10.5655 1.67509 12C1.67509 13.4345 2.8377 14.5971 4.27222 14.5971C5.7067 14.5971 6.86934 13.4345 6.86934 12ZM18.8902 4.27222C18.8902 2.8377 17.7276 1.67509 16.2931 1.67509C14.8587 1.67517 13.696 2.83775 13.696 4.27222C13.696 5.70665 14.8587 6.86927 16.2931 6.86934C17.7276 6.86934 18.8902 5.7067 18.8902 4.27222ZM20.5653 4.27222C20.5653 6.63143 18.6523 8.54353 16.2931 8.54353C15.0876 8.54349 13.9994 8.044 13.2227 7.24088L8.2483 10.4385C8.43845 10.9223 8.54353 11.4487 8.54353 12C8.54353 12.551 8.43825 13.0771 8.2483 13.5606L13.2227 16.7582C13.9993 15.9554 15.0879 15.4565 16.2931 15.4565C18.6523 15.4565 20.5653 17.3686 20.5653 19.7278C20.5653 22.087 18.6524 24 16.2931 24C13.9339 23.9999 12.0218 22.087 12.0218 19.7278C12.0218 19.1766 12.126 18.6499 12.3161 18.1662L7.34171 14.9687C6.56507 15.7715 5.47748 16.2722 4.27222 16.2722C1.91298 16.2722 0 14.3592 0 12C0 9.64076 1.91298 7.72778 4.27222 7.72778C5.47725 7.7278 6.56509 8.22783 7.34171 9.03043L12.3161 5.83285C12.1262 5.34937 12.0218 4.82307 12.0218 4.27222C12.0218 1.91302 13.9339 7.47833e-05 16.2931 0C18.6524 0 20.5653 1.91298 20.5653 4.27222Z" fill="#334155"/>
</svg>
