<svg width="24" height="24" viewBox="0 0 24 24" fill="none" xmlns="http://www.w3.org/2000/svg">
<path d="M0 15.3616V8.63839C0 5.75846 0.570457 3.53533 2.0529 2.0529C3.53533 0.570457 5.75846 0 8.63839 0H14.2417L14.3201 0.00364797C14.5017 0.0217607 14.6724 0.102386 14.8026 0.232558L23.7674 9.19745C23.9162 9.34623 23.9999 9.54792 24 9.75832V13.1208C23.9999 13.5591 23.6449 13.9143 23.2066 13.9143C22.7682 13.9143 22.4132 13.5592 22.4131 13.1208V10.5527H18.7241C16.9992 10.5527 15.5961 10.2755 14.6603 9.33972C13.7245 8.4039 13.4473 7.00084 13.4473 5.27588V1.58687H8.63839C5.91505 1.58687 4.2146 2.13652 3.17556 3.17556C2.13652 4.2146 1.58687 5.91505 1.58687 8.63839V15.3616C1.58687 18.085 2.13652 19.7854 3.17556 20.8244C4.2146 21.8635 5.91505 22.4131 8.63839 22.4131C9.07663 22.4133 9.43183 22.7683 9.43183 23.2066C9.43182 23.6448 9.07662 23.9998 8.63839 24C5.75847 24 3.53533 23.4295 2.0529 21.9471C0.570457 20.4647 0 18.2415 0 15.3616ZM16.1332 13.5349C17.2016 13.2549 18.3984 13.351 19.4109 13.9453C20.3153 14.4762 21.0122 15.3693 21.3406 16.6065C24.0292 17.3858 24.98 21.0874 22.7652 23.0205L22.7642 23.0196C22.0657 23.654 21.1399 24 20.2034 24H13.9726C13.9536 24 13.9342 23.9995 13.9152 23.9982C10.6319 23.7607 10.3299 19.408 13.0096 18.414C12.8076 17.3139 12.9943 16.3193 13.4738 15.5002C14.0673 14.4865 15.0645 13.815 16.1332 13.5349ZM18.6074 15.3142C18.0056 14.961 17.2513 14.883 16.5353 15.0707C15.8194 15.2584 15.1977 15.697 14.8436 16.3019C14.5005 16.888 14.365 17.7043 14.7424 18.7588C14.8901 19.1714 14.6752 19.6259 14.2627 19.7738C14.1547 19.8125 14.0436 19.8256 13.9362 19.8176C12.384 20.0175 12.4098 22.2822 14.0137 22.4131H20.2034C20.7615 22.4131 21.3075 22.2029 21.7054 21.8377L21.7209 21.824C23.0543 20.6602 22.3249 18.2833 20.5755 18.0657C20.227 18.0221 19.9482 17.7546 19.8906 17.4081C19.7063 16.3011 19.1903 15.6564 18.6074 15.3142ZM15.0351 5.27588C15.0351 6.91289 15.3179 7.75205 15.7829 8.21705C16.2479 8.68205 17.0871 8.96489 18.7241 8.96489H21.2905L15.0351 2.70953V5.27588Z" fill="#334155"/>
</svg>
